<svg width="40" height="40" viewBox="0 0 40 40" fill="none" xmlns="http://www.w3.org/2000/svg">
<g id="clock-history">
<path id="Vector" d="M21.0172 6.22343L21.2653 6.24117L21.2843 5.99317L21.4323 4.06172L21.4515 3.8113L21.201 3.79327C20.8862 3.7706 20.5707 3.75683 20.2551 3.75198V3.75006L20.0052 3.75L20.0052 3.75L19.7551 3.74988V3.7518C17.1698 3.78969 14.6294 4.425 12.346 5.60675C9.98896 6.8266 7.97804 8.59124 6.49202 10.745C5.00596 12.8988 4.09086 15.3751 3.82843 17.9545C3.56601 20.5339 3.96446 23.1359 4.98816 25.53C6.01185 27.924 7.62893 30.0355 9.69537 31.6781C11.7618 33.3206 14.2139 34.4436 16.8342 34.9481C19.4545 35.4526 22.1629 35.3233 24.7194 34.5715C27.1975 33.8427 29.4594 32.5508 31.3171 30.804L31.3184 30.8053L31.4901 30.6388C31.4908 30.6381 31.4916 30.6374 31.4923 30.6367L31.4924 30.6366L31.6776 30.4571L31.676 30.4556C31.8929 30.2384 32.1033 30.0153 32.307 29.7865L32.4786 29.5937L32.2805 29.4283L30.7646 28.1633L30.5777 28.0074L30.4168 28.1899C30.1995 28.4365 29.9701 28.6758 29.7305 28.9079C28.1321 30.4561 26.1635 31.5992 23.9989 32.2352C21.8342 32.8712 19.5408 32.9803 17.3221 32.5528C15.1034 32.1252 13.0284 31.1743 11.2808 29.785C9.53322 28.3957 8.16709 26.611 7.30265 24.5894C6.43823 22.5679 6.10193 20.3715 6.32321 18.1945C6.54449 16.0175 7.31662 13.9264 8.57185 12.1065C9.82712 10.2865 11.5269 8.79365 13.5213 7.76086C15.5157 6.72806 17.7428 6.18742 20.0051 6.18726C20.3428 6.18728 20.6804 6.19934 21.0172 6.22343ZM24.9552 7.08001L25.1845 7.16569L25.275 6.93834L25.995 5.13088L26.0893 4.89404L25.8507 4.80435C25.1071 4.52488 24.3415 4.30065 23.564 4.13154L23.323 4.07911L23.2673 4.31941L22.8294 6.21018L22.7722 6.45696L23.0197 6.51087C23.6785 6.65434 24.3254 6.84457 24.9552 7.08001ZM26.6889 7.57199L26.559 7.79395L26.7845 7.91749C27.0387 8.05669 27.2881 8.20367 27.5326 8.3582V8.35925L27.6468 8.43313C27.9277 8.61483 28.2015 8.8065 28.4678 9.00773L28.6613 9.15394L28.8133 8.965L30.0432 7.4365L30.2048 7.23568L29.9991 7.08031C29.3697 6.6048 28.7052 6.17476 28.0109 5.79366L27.7976 5.6766L27.6748 5.88658L26.6889 7.57199ZM31.2481 11.8359L31.3907 12.0323L31.5912 11.8955L33.2271 10.7796L33.4406 10.634L33.2879 10.4254C32.827 9.79602 32.3194 9.1961 31.771 8.63541L31.6012 8.46175L31.4227 8.62652L29.9748 9.96323L29.7853 10.1382L29.9661 10.3221C30.4313 10.7956 30.8598 11.3016 31.2481 11.8359ZM32.7082 14.4062C32.8369 14.708 32.954 15.0142 33.0595 15.3243L33.1385 15.5566L33.3722 15.482L35.2721 14.8756L35.5148 14.7982L35.4327 14.557C35.1827 13.8219 34.877 13.1058 34.518 12.4145L34.4056 12.1981L34.1865 12.3051L32.4006 13.1769L32.1705 13.2892L32.2883 13.5165C32.4394 13.8081 32.5794 14.1048 32.7082 14.4062ZM33.7482 19.1709L33.7541 19.4149H33.9981H34.0001V19.4149L34.0062 19.4148L36.0061 19.3664L36.2565 19.3603L36.2499 19.1098C36.2296 18.3378 36.1503 17.5658 36.0141 16.8057L35.9705 16.5625L35.7268 16.6033L33.7569 16.9326L33.5077 16.9743L33.552 17.223C33.6668 17.8668 33.7323 18.5179 33.7482 19.1709ZM33.9279 20.9081L33.6814 20.8786L33.6501 21.1249C33.609 21.4498 33.556 21.771 33.4912 22.0945C33.4245 22.4155 33.3461 22.7325 33.2559 23.0458L33.1855 23.2904L33.4314 23.3564L35.3593 23.8736L35.5967 23.9373L35.6644 23.701C35.878 22.955 36.0344 22.1946 36.132 21.4262L36.1638 21.1764L35.9138 21.1464L33.9279 20.9081ZM31.6232 26.6161L31.482 26.8316L31.7016 26.9662L33.3915 28.0026L33.5986 28.1297L33.7315 27.9262C34.1582 27.2727 34.5342 26.5916 34.8593 25.8829L34.9662 25.65L34.7307 25.5489L32.9028 24.7643L32.679 24.6682L32.5771 24.8895C32.3021 25.487 31.9841 26.065 31.6232 26.6161ZM26.6268 24.2532L26.6268 24.2532L26.6217 24.2503L20.2551 20.7262V10.7804C20.2551 10.4546 20.1214 10.1438 19.8862 9.91591C19.6512 9.6883 19.3342 9.56177 19.0052 9.56177C18.6762 9.56177 18.3592 9.6883 18.1242 9.91591C17.889 10.1438 17.7553 10.4546 17.7553 10.7804V21.4353V21.4354C17.7553 21.6518 17.8145 21.8638 17.926 22.0499C18.0376 22.236 18.1973 22.3892 18.3882 22.4948L25.3877 26.3693L25.3876 26.3694L25.3928 26.3721C25.679 26.5219 26.0134 26.5571 26.3253 26.4708C26.6373 26.3846 26.9044 26.1828 27.0677 25.9061C27.2311 25.629 27.2766 25.2999 27.1934 24.9899C27.1102 24.68 26.9058 24.4163 26.6268 24.2532Z" fill="#FFC107" stroke="#FFC107" stroke-width="0.5"/>
</g>
</svg>
