<svg width="40" height="40" viewBox="0 0 40 40" fill="none" xmlns="http://www.w3.org/2000/svg">
<g id=".face-smile">
<g id="Vector">
<path fill-rule="evenodd" clip-rule="evenodd" d="M20.0002 5.83333C12.1761 5.83333 5.8335 12.176 5.8335 20C5.8335 27.824 12.1761 34.1667 20.0002 34.1667C27.8242 34.1667 34.1668 27.824 34.1668 20C34.1668 12.176 27.8242 5.83333 20.0002 5.83333ZM3.3335 20C3.3335 10.7952 10.7954 3.33333 20.0002 3.33333C29.2049 3.33333 36.6668 10.7952 36.6668 20C36.6668 29.2047 29.2049 36.6667 20.0002 36.6667C10.7954 36.6667 3.3335 29.2047 3.3335 20Z" fill="#198754"/>
<path fill-rule="evenodd" clip-rule="evenodd" d="M13.3335 22.5C14.0239 22.5 14.5835 23.0596 14.5835 23.75C14.5835 24.3141 14.9528 25.0139 15.9486 25.6363C16.9268 26.2477 18.356 26.6667 20.0002 26.6667C21.6443 26.6667 23.0735 26.2477 24.0517 25.6363C25.0475 25.0139 25.4168 24.3141 25.4168 23.75C25.4168 23.0596 25.9765 22.5 26.6668 22.5C27.3572 22.5 27.9168 23.0596 27.9168 23.75C27.9168 25.4871 26.7937 26.8706 25.3767 27.7563C23.9421 28.6529 22.0379 29.1667 20.0002 29.1667C17.9624 29.1667 16.0583 28.6529 14.6236 27.7563C13.2066 26.8706 12.0835 25.4871 12.0835 23.75C12.0835 23.0596 12.6431 22.5 13.3335 22.5Z" fill="#212529"/>
<path fill-rule="evenodd" clip-rule="evenodd" d="M15.4168 15C15.1867 15 15.0002 15.1865 15.0002 15.4167C15.0002 15.6468 15.1867 15.8333 15.4168 15.8333C15.6469 15.8333 15.8335 15.6468 15.8335 15.4167C15.8335 15.1865 15.6469 15 15.4168 15ZM12.5002 15.4167C12.5002 13.8058 13.806 12.5 15.4168 12.5C17.0277 12.5 18.3335 13.8058 18.3335 15.4167C18.3335 17.0275 17.0277 18.3333 15.4168 18.3333C13.806 18.3333 12.5002 17.0275 12.5002 15.4167Z" fill="#212529"/>
<path fill-rule="evenodd" clip-rule="evenodd" d="M24.5835 15C24.3534 15 24.1668 15.1865 24.1668 15.4167C24.1668 15.6468 24.3534 15.8333 24.5835 15.8333C24.8136 15.8333 25.0002 15.6468 25.0002 15.4167C25.0002 15.1865 24.8136 15 24.5835 15ZM21.6668 15.4167C21.6668 13.8058 22.9727 12.5 24.5835 12.5C26.1943 12.5 27.5002 13.8058 27.5002 15.4167C27.5002 17.0275 26.1943 18.3333 24.5835 18.3333C22.9727 18.3333 21.6668 17.0275 21.6668 15.4167Z" fill="#212529"/>
</g>
</g>
</svg>
