<svg width="40" height="40" viewBox="0 0 40 40" fill="none" xmlns="http://www.w3.org/2000/svg">
<g id=".face-expressionless">
<g id="Vector">
<path fill-rule="evenodd" clip-rule="evenodd" d="M20.0002 5.83333C12.1761 5.83333 5.8335 12.176 5.8335 20C5.8335 27.824 12.1761 34.1667 20.0002 34.1667C27.8242 34.1667 34.1668 27.824 34.1668 20C34.1668 12.176 27.8242 5.83333 20.0002 5.83333ZM3.3335 20C3.3335 10.7952 10.7954 3.33333 20.0002 3.33333C29.2049 3.33333 36.6668 10.7952 36.6668 20C36.6668 29.2047 29.2049 36.6667 20.0002 36.6667C10.7954 36.6667 3.3335 29.2047 3.3335 20Z" fill="#FFC107"/>
<path fill-rule="evenodd" clip-rule="evenodd" d="M13.7502 26.25C13.7502 25.5596 14.3098 25 15.0002 25H25.0002C25.6905 25 26.2502 25.5596 26.2502 26.25C26.2502 26.9404 25.6905 27.5 25.0002 27.5H15.0002C14.3098 27.5 13.7502 26.9404 13.7502 26.25Z" fill="#212529"/>
<path fill-rule="evenodd" clip-rule="evenodd" d="M20.8335 16.25C20.8335 15.5596 21.3931 15 22.0835 15H27.0835C27.7739 15 28.3335 15.5596 28.3335 16.25C28.3335 16.9404 27.7739 17.5 27.0835 17.5H22.0835C21.3931 17.5 20.8335 16.9404 20.8335 16.25Z" fill="#212529"/>
<path fill-rule="evenodd" clip-rule="evenodd" d="M11.6668 16.25C11.6668 15.5596 12.2265 15 12.9168 15H17.9168C18.6072 15 19.1668 15.5596 19.1668 16.25C19.1668 16.9404 18.6072 17.5 17.9168 17.5H12.9168C12.2265 17.5 11.6668 16.9404 11.6668 16.25Z" fill="#212529"/>
</g>
</g>
</svg>
