<svg width="40" height="40" viewBox="0 0 40 40" fill="none" xmlns="http://www.w3.org/2000/svg">
<g id=".face-confused">
<g id="Vector">
<path fill-rule="evenodd" clip-rule="evenodd" d="M20.0002 5.83334C12.1761 5.83334 5.8335 12.176 5.8335 20C5.8335 27.824 12.1761 34.1667 20.0002 34.1667C27.8242 34.1667 34.1668 27.824 34.1668 20C34.1668 12.176 27.8242 5.83334 20.0002 5.83334ZM3.3335 20C3.3335 10.7953 10.7954 3.33334 20.0002 3.33334C29.2049 3.33334 36.6668 10.7953 36.6668 20C36.6668 29.2047 29.2049 36.6667 20.0002 36.6667C10.7954 36.6667 3.3335 29.2047 3.3335 20Z" fill="#DC3545"/>
<path fill-rule="evenodd" clip-rule="evenodd" d="M15.9486 24.3637C14.9528 24.9861 14.5835 25.6859 14.5835 26.25C14.5835 26.9404 14.0239 27.5 13.3335 27.5C12.6431 27.5 12.0835 26.9404 12.0835 26.25C12.0835 24.5129 13.2066 23.1294 14.6236 22.2437C16.0583 21.3471 17.9624 20.8333 20.0002 20.8333C22.2 20.8333 24.2523 21.4327 25.7225 22.4738C26.2859 22.8728 26.4193 23.6529 26.0203 24.2163C25.6213 24.7797 24.8412 24.913 24.2778 24.5141C23.3049 23.8252 21.7826 23.3333 20.0002 23.3333C18.356 23.3333 16.9268 23.7523 15.9486 24.3637Z" fill="#212529"/>
<path fill-rule="evenodd" clip-rule="evenodd" d="M15.4168 15C15.1867 15 15.0002 15.1866 15.0002 15.4167C15.0002 15.6468 15.1867 15.8333 15.4168 15.8333C15.6469 15.8333 15.8335 15.6468 15.8335 15.4167C15.8335 15.1866 15.6469 15 15.4168 15ZM12.5002 15.4167C12.5002 13.8058 13.806 12.5 15.4168 12.5C17.0277 12.5 18.3335 13.8058 18.3335 15.4167C18.3335 17.0275 17.0277 18.3333 15.4168 18.3333C13.806 18.3333 12.5002 17.0275 12.5002 15.4167Z" fill="#212529"/>
<path fill-rule="evenodd" clip-rule="evenodd" d="M24.5835 15C24.3534 15 24.1668 15.1866 24.1668 15.4167C24.1668 15.6468 24.3534 15.8333 24.5835 15.8333C24.8136 15.8333 25.0002 15.6468 25.0002 15.4167C25.0002 15.1866 24.8136 15 24.5835 15ZM21.6668 15.4167C21.6668 13.8058 22.9727 12.5 24.5835 12.5C26.1943 12.5 27.5002 13.8058 27.5002 15.4167C27.5002 17.0275 26.1943 18.3333 24.5835 18.3333C22.9727 18.3333 21.6668 17.0275 21.6668 15.4167Z" fill="#212529"/>
</g>
</g>
</svg>
