<svg width="100" height="20" viewBox="0 0 100 20" fill="none" xmlns="http://www.w3.org/2000/svg">
<g clip-path="url(#clip0_53_57459)">
<path d="M0.491185 0.437789C4.95571 0.437578 9.42002 0.437789 13.8845 0.437789C14.3517 0.438634 14.8193 0.435676 15.2866 0.439268C15.2832 1.97937 15.291 3.51968 15.2823 5.05977C15.2792 5.16184 15.2794 5.26391 15.2823 5.36598C15.2906 6.90523 15.2838 8.44469 15.286 9.98394C15.286 10.6511 15.286 11.3182 15.286 11.9854C15.2847 12.2298 15.2904 12.4743 15.2788 12.7186C15.2113 14.1336 14.6968 15.5247 13.8171 16.657C13.0363 17.6699 11.9745 18.4779 10.7713 18.9693C9.39514 19.5371 7.83914 19.6768 6.37571 19.3834C4.88084 19.0868 3.49206 18.322 2.458 17.2364C1.88651 16.6403 1.42155 15.9489 1.08931 15.2018C0.711879 14.3553 0.509085 13.4371 0.490967 12.5156C0.491622 8.4897 0.490749 4.46385 0.491185 0.437789Z" fill="#FF0074"/>
<path d="M17.6459 1.13217C18.4318 0.665361 19.3569 0.42023 20.279 0.43777C23.4953 0.43777 26.7116 0.437558 29.9279 0.43777C29.9279 3.61982 29.9282 6.80208 29.9279 9.98414C28.4099 9.98604 26.8919 9.98076 25.3741 9.98667C24.0904 9.98456 22.8066 9.98646 21.5228 9.98583C20.9819 9.98245 20.4407 9.99259 19.8998 9.98033C19.2194 9.93342 18.5472 9.75908 17.9421 9.45224C17.1978 9.07884 16.5547 8.51842 16.0941 7.84009C15.5922 7.10977 15.3111 6.24209 15.2822 5.36596C15.2794 5.26389 15.2792 5.16182 15.2822 5.05975C15.3084 4.24998 15.5494 3.44738 15.9823 2.75362C16.391 2.09388 16.9668 1.53198 17.6459 1.13217Z" fill="#005CFF"/>
<path d="M37.6173 3.16916C41.1063 3.16916 44.5955 3.16916 48.0847 3.16916C48.0844 3.78199 48.0847 4.39481 48.0844 5.00764C46.6697 5.00722 45.2551 5.00891 43.8406 5.00679C43.8362 8.85662 43.8399 12.7064 43.8386 16.5563C43.18 16.5563 42.5217 16.5563 41.8631 16.5563C41.8629 12.7066 41.8631 8.85725 41.8631 5.00785C40.4479 5.00764 39.0325 5.00785 37.6173 5.00764C37.6171 4.39481 37.6173 3.78199 37.6173 3.16916Z" fill="#212529"/>
<path d="M69.0188 3.1691C69.6791 3.1691 70.3395 3.1691 70.9998 3.1691C71 5.66838 70.9996 8.16787 71 10.6671C72.4491 9.29272 73.892 7.91238 75.3417 6.53901C76.3083 6.54049 77.2749 6.53859 78.2415 6.54007C76.9647 7.741 75.6855 8.93982 74.408 10.1403C74.3294 10.209 74.2596 10.2863 74.1788 10.3527C75.6189 12.4198 77.0577 14.4878 78.4975 16.5554C77.6975 16.5575 76.8974 16.5556 76.0974 16.5562C74.9778 14.94 73.8549 13.326 72.7357 11.7094C72.155 12.2497 71.5802 12.796 70.9994 13.3361C71 14.4096 71 15.4829 70.9996 16.5562C70.3393 16.556 69.6791 16.5564 69.0188 16.5562C69.0188 12.0938 69.0188 7.63154 69.0188 3.1691Z" fill="#212529"/>
<path d="M79.5943 3.17036C80.2529 3.16762 80.9117 3.16973 81.5705 3.16931C81.5705 6.10116 81.5707 9.03322 81.5705 11.9653C81.584 12.7915 81.9818 13.6003 82.631 14.1357C83.2837 14.6869 84.1878 14.9445 85.0446 14.8204C85.8098 14.7177 86.5244 14.3158 87.0008 13.7279C87.4321 13.203 87.6718 12.531 87.6554 11.8594C87.6556 8.96264 87.6548 6.06587 87.6559 3.16888C88.316 3.16931 88.9761 3.16888 89.6364 3.1691C89.6364 6.10094 89.6369 9.03258 89.6362 11.9642C89.6242 12.8458 89.3633 13.7239 88.8796 14.4715C88.462 15.1207 87.8846 15.6727 87.2081 16.0676C86.4116 16.5346 85.4775 16.7813 84.5463 16.7622C83.6035 16.7578 82.6657 16.4793 81.8768 15.9808C81.202 15.5569 80.6358 14.9732 80.2402 14.2953C79.8794 13.6793 79.6618 12.9855 79.6076 12.2795C79.586 12.0416 79.5978 11.8024 79.595 11.564C79.5945 8.76611 79.5956 5.96824 79.5943 3.17036Z" fill="#212529"/>
<path d="M49.6441 6.68882C50.3614 6.38854 51.1514 6.26259 51.9307 6.30126C52.6253 6.33233 53.3175 6.48765 53.9444 6.78201C54.4456 7.01489 54.9025 7.33588 55.2872 7.7245C55.9534 8.4022 56.405 9.25974 56.655 10.1591C56.7916 10.6652 56.8822 11.1874 56.8707 11.7119C56.8707 13.3266 56.8709 14.9413 56.8707 16.5562C56.2302 16.5562 55.5899 16.5564 54.9497 16.556C54.9497 16.1373 54.9495 15.7187 54.9497 15.3001C54.3079 16.0154 53.4277 16.5386 52.4642 16.7233C51.7471 16.8594 50.9997 16.8083 50.2961 16.627C49.123 16.3225 48.0833 15.5856 47.4096 14.6097C46.9682 13.9775 46.6755 13.2501 46.5474 12.4976C46.4044 11.6546 46.4531 10.7798 46.7015 9.95963C46.9309 9.19951 47.3361 8.488 47.8879 7.90285C48.3749 7.38301 48.9774 6.96481 49.6441 6.68882ZM51.2906 8.15792C50.6624 8.23272 50.0682 8.51526 49.6063 8.93156C49.1656 9.32334 48.8397 9.83009 48.6482 10.3776C48.3712 11.1792 48.378 12.0741 48.6901 12.8653C48.9154 13.4411 49.3003 13.9608 49.8047 14.3373C50.3498 14.7488 51.0424 14.98 51.7351 14.9565C52.3843 14.9411 53.0176 14.7 53.5262 14.313C53.9453 13.9948 54.2874 13.5825 54.5203 13.1189C54.8089 12.5559 54.9318 11.9167 54.8803 11.2907C54.7956 10.2115 54.1835 9.17014 53.2324 8.59049C52.6611 8.23864 51.9645 8.07149 51.2906 8.15792Z" fill="#212529"/>
<path d="M60.0599 7.05272C60.8462 6.51132 61.8288 6.30634 62.7805 6.29641C63.7489 6.27929 64.7495 6.46229 65.5744 6.97411C66.1946 7.35406 66.6827 7.93392 66.93 8.60381C67.0575 8.93664 67.1213 9.28827 67.154 9.64054C66.4911 9.64096 65.8283 9.64075 65.1658 9.64075C65.1001 9.26735 64.9285 8.90494 64.6393 8.6448C64.2859 8.32127 63.8056 8.15898 63.3293 8.10488C62.8327 8.05142 62.3217 8.08248 61.8443 8.23104C61.5456 8.32634 61.2542 8.4692 61.0355 8.69235C60.8742 8.85464 60.7635 9.07442 60.7724 9.30327C60.7718 9.46388 60.8303 9.62828 60.9545 9.73859C61.1431 9.90511 61.3911 9.98668 61.6308 10.0587C62.5461 10.3166 63.5024 10.3835 64.4308 10.5843C64.8862 10.6834 65.3391 10.8074 65.7613 11.0038C66.1202 11.1692 66.4585 11.389 66.7218 11.6802C66.9903 11.9727 67.173 12.3342 67.2634 12.7146C67.4561 13.5493 67.3321 14.4709 66.8342 15.1883C66.4022 15.8221 65.7196 16.2644 64.9857 16.5097C64.4594 16.6878 63.9032 16.7747 63.347 16.795C62.4238 16.8298 61.4793 16.6908 60.6439 16.2965C59.9183 15.9588 59.2898 15.4136 58.9017 14.7272C58.6249 14.2501 58.4769 13.7118 58.4197 13.1698C59.0855 13.1704 59.7513 13.1685 60.4171 13.1706C60.4692 13.5724 60.6519 13.9601 60.9495 14.2469C61.1837 14.485 61.4812 14.6585 61.796 14.7779C62.3022 14.9679 62.8545 15.0224 63.3935 14.9857C63.8429 14.9546 64.2966 14.8559 64.6897 14.6357C64.9643 14.4817 65.2092 14.26 65.338 13.9749C65.4432 13.7458 65.4518 13.4825 65.3878 13.2419C65.3289 13.031 65.1582 12.8682 64.9682 12.7607C64.6661 12.5876 64.3232 12.4967 63.9848 12.4169C63.3716 12.2742 62.7421 12.2216 62.1235 12.109C61.6096 12.0164 61.0977 11.9021 60.6083 11.722C60.2531 11.5898 59.908 11.4211 59.6135 11.1855C59.3105 10.9459 59.0732 10.6274 58.944 10.2692C58.789 9.83221 58.7563 9.35653 58.8299 8.90092C58.9547 8.15454 59.4243 7.48381 60.0599 7.05272Z" fill="#212529"/>
<path d="M93.0604 6.64339C93.5723 6.44306 94.121 6.34184 94.6709 6.30782C95.617 6.25308 96.5976 6.36593 97.4524 6.78307C98.1082 7.09773 98.6683 7.61039 98.9942 8.24815C99.2234 8.67946 99.3361 9.15979 99.3784 9.64096C98.7154 9.64054 98.0525 9.64096 97.3895 9.64075C97.3256 9.28637 97.1713 8.93959 96.9036 8.68495C96.5489 8.33226 96.0449 8.16067 95.5491 8.10425C95.0588 8.05247 94.5552 8.08185 94.0835 8.22639C93.7316 8.3367 93.383 8.51357 93.1606 8.80815C93.0086 9.00489 92.9558 9.26925 93.0278 9.50551C93.0658 9.62849 93.1542 9.73246 93.2625 9.80537C93.4535 9.93681 93.6799 10.0082 93.9025 10.0727C94.8126 10.3206 95.7609 10.3886 96.6814 10.5902C97.1365 10.6897 97.5891 10.8167 98.0099 11.0152C98.3928 11.1937 98.7486 11.4387 99.016 11.7611C99.2902 12.088 99.4577 12.4904 99.5264 12.9044C99.6048 13.3853 99.5871 13.8836 99.4522 14.3538C99.3339 14.768 99.1184 15.1556 98.8285 15.4812C98.3463 16.0258 97.6735 16.3873 96.9676 16.5843C96.4502 16.7303 95.9104 16.7956 95.3723 16.7994C94.4325 16.8104 93.4745 16.6316 92.648 16.1857C91.9717 15.824 91.4 15.2709 91.0562 14.5983C90.822 14.1548 90.6962 13.6641 90.6443 13.17C91.3094 13.1694 91.9746 13.17 92.6397 13.1698C92.6914 13.5352 92.8418 13.8904 93.0964 14.1676C93.3832 14.4899 93.7777 14.7082 94.1926 14.8377C94.7272 15.0011 95.2994 15.0298 95.8541 14.9628C96.3077 14.9045 96.7646 14.7688 97.1304 14.4941C97.4018 14.2921 97.6155 13.9944 97.6467 13.6577C97.6674 13.4084 97.6257 13.1315 97.4367 12.9464C97.1874 12.7007 96.8384 12.588 96.5057 12.4917C95.9981 12.3511 95.4747 12.2765 94.953 12.2058C94.3681 12.1206 93.7844 12.0166 93.218 11.8499C92.8178 11.7309 92.4247 11.5779 92.0737 11.3546C91.744 11.1447 91.4568 10.8624 91.2793 10.5188C91.0911 10.1644 91.02 9.76184 91.0167 9.36625C91.0099 8.8538 91.1623 8.34177 91.4439 7.90814C91.8167 7.32553 92.4085 6.89676 93.0604 6.64339Z" fill="#212529"/>
<path d="M15.286 9.98394C16.8239 9.98183 18.3622 9.98901 19.8999 9.98035C20.4408 9.9926 20.9819 9.98246 21.5229 9.98584C22.8066 9.98647 24.0904 9.98457 25.3742 9.98669C26.21 10.0218 27.0354 10.2684 27.7455 10.6971C28.4211 11.1029 28.9931 11.6688 29.3965 12.3321C29.8534 13.0789 30.093 13.9496 30.0756 14.8177C30.071 15.7058 29.7951 16.5896 29.2987 17.336C28.9012 17.9359 28.3631 18.4475 27.737 18.8222C27.0009 19.2636 26.1428 19.5119 25.2771 19.5307C21.9448 19.5303 18.6128 19.5307 15.2806 19.5305C15.2792 17.2599 15.283 14.9893 15.2788 12.7186C15.2904 12.4743 15.2847 12.2298 15.286 11.9853C15.286 11.3182 15.286 10.6511 15.286 9.98394Z" fill="#FFD400"/>
</g>
<defs>
<clipPath id="clip0_53_57459">
<rect width="100" height="20" fill="white"/>
</clipPath>
</defs>
</svg>
